Newsreader6pt-ExtraLightItalic.ufo
<glyph name="T" format="2">
  <advance width="1323"/>
  <unicode hex="0054"/>
  <anchor x="915.0" y="1414" name="UCtop"/>
  <anchor x="522.0" y="0" name="bottom"/>
  <outline>
    <contour>
      <point x="1428.0" y="1350.0" type="line"/>
      <point x="1384.0" y="1372.0" type="line"/>
      <point x="1364.0" y="1044.0" type="line"/>
      <point x="1422.0" y="1044.0" type="line"/>
      <point x="1492.0" y="1484.0" type="line"/>
      <point x="1433.0" y="1484.0" type="line"/>
      <point x="1395.0" y="1398.0" type="line"/>
      <point x="1466.0" y="1414.0" type="line"/>
      <point x="425.0" y="1414.0" type="line"/>
      <point x="474.0" y="1398.0" type="line"/>
      <point x="488.0" y="1484.0" type="line"/>
      <point x="423.0" y="1484.0" type="line"/>
      <point x="226.0" y="1044.0" type="line"/>
      <point x="288.0" y="1044.0" type="line"/>
      <point x="468.0" y="1372.0" type="line"/>
      <point x="402.0" y="1350.0" type="line"/>
    </contour>
    <contour>
      <point x="896.0" y="1407.0" type="line"/>
      <point x="485.0" y="63.0" type="line"/>
      <point x="270.0" y="47.0" type="line"/>
      <point x="256.0" y="0.0" type="line"/>
      <point x="752.0" y="0.0" type="line"/>
      <point x="766.0" y="47.0" type="line"/>
      <point x="561.0" y="63.0" type="line"/>
      <point x="972.0" y="1407.0" type="line"/>
    </contour>
  </outline>
</glyph>
<glyph name="r" format="2">
  <advance width="888"/>
  <unicode hex="0072"/>
  <anchor x="623.0" y="1024" name="top"/>
  <anchor x="180.0" y="0" name="bottom"/>
  <outline>
    <contour>
      <point x="432" y="963" type="curve"/>
      <point x="142" y="0" type="line"/>
      <point x="218" y="0" type="line"/>
      <point x="330" y="370" type="line" smooth="yes"/>
      <point x="400" y="602"/>
      <point x="658" y="955"/>
      <point x="818" y="955" type="curve" smooth="yes"/>
      <point x="824" y="955"/>
      <point x="851.0" y="937.0"/>
      <point x="877" y="919" type="curve" smooth="yes"/>
      <point x="903" y="901"/>
      <point x="929" y="884"/>
      <point x="933" y="884" type="curve" smooth="yes"/>
      <point x="939" y="884"/>
      <point x="990" y="933"/>
      <point x="990" y="981" type="curve" smooth="yes"/>
      <point x="990" y="1022"/>
      <point x="971" y="1042"/>
      <point x="905" y="1042" type="curve" smooth="yes"/>
      <point x="737" y="1042"/>
      <point x="571" y="919"/>
      <point x="365" y="537" type="curve"/>
      <point x="356" y="537" type="line"/>
      <point x="515" y="1030" type="line"/>
      <point x="494" y="1035"/>
      <point x="452" y="1039"/>
      <point x="423" y="1039" type="curve" smooth="yes"/>
      <point x="267" y="1039"/>
      <point x="150" y="1001"/>
      <point x="82" y="808" type="curve"/>
      <point x="105" y="808" type="line"/>
      <point x="156" y="913"/>
      <point x="237" y="969"/>
      <point x="361" y="969" type="curve" smooth="yes"/>
      <point x="384" y="969"/>
      <point x="413" y="969"/>
    </contour>
  </outline>
</glyph>
<glyph name="s" format="2">
  <advance width="916"/>
  <unicode hex="0073"/>
  <anchor x="566.0" y="1024" name="top"/>
  <anchor x="382.0" y="0" name="bottom"/>
  <outline>
    <contour>
      <point x="180" y="172" type="curve"/>
      <point x="73" y="172"/>
      <point x="46" y="147"/>
      <point x="46" y="87" type="curve" smooth="yes"/>
      <point x="46" y="23"/>
      <point x="106" y="-20"/>
      <point x="311" y="-20" type="curve" smooth="yes"/>
      <point x="602" y="-20"/>
      <point x="754" y="103"/>
      <point x="754" y="306" type="curve" smooth="yes"/>
      <point x="754" y="411"/>
      <point x="713" y="499"/>
      <point x="514" y="569" type="curve" smooth="yes"/>
      <point x="315" y="639"/>
      <point x="270" y="693"/>
      <point x="270" y="780" type="curve" smooth="yes"/>
      <point x="270" y="902"/>
      <point x="351" y="991"/>
      <point x="582" y="991" type="curve" smooth="yes"/>
      <point x="661" y="991"/>
      <point x="707" y="980"/>
      <point x="728" y="958" type="curve" smooth="yes"/>
      <point x="749" y="936"/>
      <point x="752" y="901"/>
      <point x="747" y="851" type="curve"/>
      <point x="846" y="851"/>
      <point x="869" y="873"/>
      <point x="869" y="926" type="curve" smooth="yes"/>
      <point x="869" y="994"/>
      <point x="801" y="1044"/>
      <point x="603" y="1044" type="curve" smooth="yes"/>
      <point x="330" y="1044"/>
      <point x="208" y="925"/>
      <point x="208" y="763" type="curve" smooth="yes"/>
      <point x="208" y="654"/>
      <point x="264" y="583"/>
      <point x="458" y="514" type="curve" smooth="yes"/>
      <point x="652" y="445"/>
      <point x="691" y="380"/>
      <point x="691" y="288" type="curve" smooth="yes"/>
      <point x="691" y="128"/>
      <point x="574" y="31"/>
      <point x="327" y="31" type="curve" smooth="yes"/>
      <point x="259" y="31"/>
      <point x="220.0" y="38.0"/>
      <point x="200" y="61" type="curve" smooth="yes"/>
      <point x="180" y="84"/>
      <point x="177" y="117"/>
    </contour>
  </outline>
</glyph>
<glyph name="x" format="2">
  <advance width="1180"/>
  <unicode hex="0078"/>
  <anchor x="751.0" y="1024" name="top"/>
  <anchor x="437.0" y="0" name="bottom"/>
  <outline>
    <contour>
      <point x="608" y="515" type="line"/>
      <point x="773" y="722" type="line" smooth="yes"/>
      <point x="924" y="911"/>
      <point x="1023" y="959"/>
      <point x="1059" y="959" type="curve" smooth="yes"/>
      <point x="1067" y="959"/>
      <point x="1089" y="942"/>
      <point x="1110" y="925" type="curve" smooth="yes"/>
      <point x="1131" y="908"/>
      <point x="1153" y="889"/>
      <point x="1159" y="889" type="curve" smooth="yes"/>
      <point x="1171" y="889"/>
      <point x="1219" y="931"/>
      <point x="1219" y="976" type="curve" smooth="yes"/>
      <point x="1219" y="1014"/>
      <point x="1201" y="1044"/>
      <point x="1126" y="1044" type="curve" smooth="yes"/>
      <point x="1017" y="1044"/>
      <point x="912" y="962"/>
      <point x="754" y="767" type="curve" smooth="yes"/>
      <point x="591" y="565" type="line"/>
      <point x="557" y="534" type="line"/>
      <point x="379" y="306" type="line" smooth="yes"/>
      <point x="231" y="116"/>
      <point x="139" y="65"/>
      <point x="103" y="65" type="curve" smooth="yes"/>
      <point x="95" y="65"/>
      <point x="75" y="80"/>
      <point x="53" y="98" type="curve" smooth="yes"/>
      <point x="31.0" y="116.0"/>
      <point x="9" y="135"/>
      <point x="3" y="135" type="curve" smooth="yes"/>
      <point x="-9" y="135"/>
      <point x="-51" y="96"/>
      <point x="-51" y="48" type="curve" smooth="yes"/>
      <point x="-51" y="2"/>
      <point x="-25" y="-20"/>
      <point x="42" y="-20" type="curve" smooth="yes"/>
      <point x="151" y="-20"/>
      <point x="245" y="59"/>
      <point x="399" y="257" type="curve" smooth="yes"/>
      <point x="577" y="487" type="line"/>
    </contour>
    <contour>
      <point x="1094.0" y="266.0" type="curve"/>
      <point x="1060.0" y="295.0" type="line"/>
      <point x="910.0" y="119.0"/>
      <point x="807.0" y="48.0"/>
      <point x="755.0" y="48.0" type="curve" smooth="yes"/>
      <point x="742.0" y="48.0"/>
      <point x="738.0" y="58.0"/>
      <point x="728.0" y="100.0" type="curve" smooth="yes"/>
      <point x="522.0" y="962.0" type="line" smooth="yes"/>
      <point x="507.0" y="1024.0"/>
      <point x="489.0" y="1044.0"/>
      <point x="444.0" y="1044.0" type="curve" smooth="yes"/>
      <point x="373.0" y="1044.0"/>
      <point x="273.0" y="980.0"/>
      <point x="123.0" y="735.0" type="curve"/>
      <point x="160.0" y="711.0" type="line"/>
      <point x="289.0" y="907.0"/>
      <point x="378.0" y="968.0"/>
      <point x="430.0" y="968.0" type="curve" smooth="yes"/>
      <point x="446.0" y="968.0"/>
      <point x="452.0" y="962.0"/>
      <point x="460.0" y="929.0" type="curve" smooth="yes"/>
      <point x="669.0" y="51.0" type="line" smooth="yes"/>
      <point x="683.0" y="-8.0"/>
      <point x="696.0" y="-20.0"/>
      <point x="737.0" y="-20.0" type="curve" smooth="yes"/>
      <point x="808.0" y="-20.0"/>
      <point x="914.0" y="42.0"/>
    </contour>
  </outline>
</glyph>
<glyph name="y" format="2">
  <advance width="1197"/>
  <unicode hex="0079"/>
  <anchor x="708.0" y="1024" name="top"/>
  <anchor x="814.0" y="-159" name="bottom"/>
  <outline>
    <contour>
      <point x="99.0" y="572.0" type="line"/>
      <point x="188.0" y="821.0"/>
      <point x="304.0" y="970.0"/>
      <point x="364.0" y="970.0" type="curve" smooth="yes"/>
      <point x="384.0" y="970.0"/>
      <point x="396.0" y="957.0"/>
      <point x="431.0" y="842.0" type="curve" smooth="yes"/>
      <point x="466.0" y="727.0"/>
      <point x="569.0" y="238.0"/>
      <point x="588.0" y="-135.0" type="curve"/>
      <point x="660.0" y="-69.0" type="line"/>
      <point x="609.0" y="457.0"/>
      <point x="528.0" y="798.0"/>
      <point x="487.0" y="913.0" type="curve" smooth="yes"/>
      <point x="446.0" y="1028.0"/>
      <point x="428.0" y="1044.0"/>
      <point x="381.0" y="1044.0" type="curve" smooth="yes"/>
      <point x="303.0" y="1044.0"/>
      <point x="187.0" y="964.0"/>
      <point x="62.0" y="584.0" type="curve"/>
    </contour>
    <contour>
      <point x="606" y="-103" type="line"/>
      <point x="472" y="-259"/>
      <point x="245" y="-396"/>
      <point x="110" y="-396" type="curve" smooth="yes"/>
      <point x="89.0" y="-396.0"/>
      <point x="66" y="-378"/>
      <point x="48" y="-349" type="curve" smooth="yes"/>
      <point x="30" y="-320.0"/>
      <point x="17" y="-288"/>
      <point x="10" y="-288" type="curve" smooth="yes"/>
      <point x="-28" y="-288"/>
      <point x="-75" y="-341"/>
      <point x="-75" y="-379" type="curve" smooth="yes"/>
      <point x="-75" y="-437"/>
      <point x="-32" y="-465"/>
      <point x="57" y="-465" type="curve" smooth="yes"/>
      <point x="226" y="-465"/>
      <point x="478" y="-337"/>
      <point x="702" y="-75" type="curve" smooth="yes"/>
      <point x="926" y="187"/>
      <point x="1118" y="694"/>
      <point x="1118" y="1000" type="curve" smooth="yes"/>
      <point x="1118" y="1022"/>
      <point x="1106" y="1027"/>
      <point x="1075" y="1027" type="curve" smooth="yes"/>
      <point x="1057" y="1027"/>
      <point x="1049" y="1025"/>
      <point x="1033" y="1024" type="curve"/>
      <point x="1023" y="600"/>
      <point x="867" y="197"/>
      <point x="640" y="-61" type="curve"/>
    </contour>
  </outline>
</glyph>
<glyph name="bar" format="2">
  <advance width="551"/>
  <unicode hex="007C"/>
  <outline>
    <contour>
      <point x="-46.0" y="-465.0" type="line"/>
      <point x="22.0" y="-465.0" type="line"/>
      <point x="610.0" y="1535.0" type="line"/>
      <point x="542.0" y="1535.0" type="line"/>
    </contour>
  </outline>
</glyph>
<glyph name="brokenbar" format="2">
  <advance width="551"/>
  <unicode hex="00A6"/>
  <outline>
    <contour>
      <point x="387.0" y="775.0" type="line"/>
      <point x="610.0" y="1535.0" type="line"/>
      <point x="542.0" y="1535.0" type="line"/>
      <point x="319.0" y="775.0" type="line"/>
    </contour>
    <contour>
      <point x="-46.0" y="-465.0" type="line"/>
      <point x="22.0" y="-465.0" type="line"/>
      <point x="246.0" y="295.0" type="line"/>
      <point x="178.0" y="295.0" type="line"/>
    </contour>
  </outline>
</glyph>
<glyph name="registered" format="2">
  <advance width="1157"/>
  <unicode hex="00AE"/>
  <outline>
    <contour>
      <point x="923.0" y="831.0" type="line"/>
      <point x="884.0" y="831.0"/>
      <point x="880.0" y="836.0"/>
      <point x="874.0" y="873.0" type="curve" smooth="yes"/>
      <point x="862.0" y="948.0" type="line" smooth="yes"/>
      <point x="855.0" y="992.0"/>
      <point x="843.0" y="1017.0"/>
      <point x="789.0" y="1021.0" type="curve"/>
      <point x="799.0" y="1016.0" type="line"/>
      <point x="901.0" y="1031.0"/>
      <point x="940.0" y="1083.0"/>
      <point x="940.0" y="1147.0" type="curve" smooth="yes"/>
      <point x="940.0" y="1203.0"/>
      <point x="905.0" y="1240.0"/>
      <point x="792.0" y="1240.0" type="curve" smooth="yes"/>
      <point x="683.0" y="1240.0" type="line"/>
      <point x="670.0" y="1197.0" type="line"/>
      <point x="783.0" y="1197.0" type="line" smooth="yes"/>
      <point x="855.0" y="1197.0"/>
      <point x="878.0" y="1180.0"/>
      <point x="878.0" y="1136.0" type="curve" smooth="yes"/>
      <point x="878.0" y="1075.0"/>
      <point x="838.0" y="1037.0"/>
      <point x="738.0" y="1037.0" type="curve" smooth="yes"/>
      <point x="621.0" y="1037.0" type="line"/>
      <point x="608.0" y="994.0" type="line"/>
      <point x="751.0" y="994.0" type="line" smooth="yes"/>
      <point x="797.0" y="994.0"/>
      <point x="802.0" y="990.0"/>
      <point x="808.0" y="949.0" type="curve" smooth="yes"/>
      <point x="825.0" y="840.0" type="line" smooth="yes"/>
      <point x="832.0" y="791.0"/>
      <point x="852.0" y="786.0"/>
      <point x="915.0" y="791.0" type="curve"/>
    </contour>
    <contour>
      <point x="708.0" y="1240.0" type="line"/>
      <point x="581.0" y="1240.0" type="line"/>
      <point x="570.0" y="1203.0" type="line"/>
      <point x="638.0" y="1198.0" type="line"/>
      <point x="526.0" y="833.0" type="line"/>
      <point x="455.0" y="828.0" type="line"/>
      <point x="444.0" y="791.0" type="line"/>
      <point x="650.0" y="791.0" type="line"/>
      <point x="661.0" y="828.0" type="line"/>
      <point x="584.0" y="833.0" type="line"/>
    </contour>
    <contour>
      <point x="678.0" y="633.0" type="curve" smooth="yes"/>
      <point x="450.0" y="633.0"/>
      <point x="340.0" y="730.0"/>
      <point x="340.0" y="934.0" type="curve" smooth="yes"/>
      <point x="340.0" y="1167.0"/>
      <point x="478.0" y="1381.0"/>
      <point x="771.0" y="1381.0" type="curve" smooth="yes"/>
      <point x="999.0" y="1381.0"/>
      <point x="1109.0" y="1284.0"/>
      <point x="1109.0" y="1080.0" type="curve" smooth="yes"/>
      <point x="1109.0" y="847.0"/>
      <point x="971.0" y="633.0"/>
    </contour>
    <contour>
      <point x="779.0" y="1434.0" type="curve" smooth="yes"/>
      <point x="443.0" y="1434.0"/>
      <point x="281.0" y="1190.0"/>
      <point x="281.0" y="928.0" type="curve" smooth="yes"/>
      <point x="281.0" y="704.0"/>
      <point x="402.0" y="580.0"/>
      <point x="670.0" y="580.0" type="curve" smooth="yes"/>
      <point x="1006.0" y="580.0"/>
      <point x="1168.0" y="824.0"/>
      <point x="1168.0" y="1086.0" type="curve" smooth="yes"/>
      <point x="1168.0" y="1310.0"/>
      <point x="1047.0" y="1434.0"/>
    </contour>
  </outline>
</glyph>
<glyph name="ae" format="2">
  <advance width="1846"/>
  <unicode hex="00E6"/>
  <anchor x="1111.0" y="1024" name="top"/>
  <anchor x="798.0" y="0" name="bottom"/>
  <outline>
    <contour>
      <point x="1076.0" y="805.0" type="line"/>
      <point x="1153.0" y="1024.0" type="line"/>
      <point x="1077.0" y="1024.0" type="line"/>
      <point x="1024.0" y="867.0" type="line"/>
      <point x="962.0" y="680.0" type="line" smooth="yes"/>
      <point x="862.0" y="381.0"/>
      <point x="592.0" y="40.0"/>
      <point x="334.0" y="40.0" type="curve" smooth="yes"/>
      <point x="196.0" y="40.0"/>
      <point x="133.0" y="102.0"/>
      <point x="133.0" y="240.0" type="curve" smooth="yes"/>
      <point x="133.0" y="525.0"/>
      <point x="421.0" y="993.0"/>
      <point x="754.0" y="993.0" type="curve" smooth="yes"/>
      <point x="882.0" y="993.0"/>
      <point x="980.0" y="936.0"/>
      <point x="1044.0" y="821.0" type="curve"/>
      <point x="1050.0" y="833.0" type="line"/>
      <point x="995.0" y="959.0"/>
      <point x="906.0" y="1044.0"/>
      <point x="757.0" y="1044.0" type="curve" smooth="yes"/>
      <point x="351.0" y="1044.0"/>
      <point x="54.0" y="535.0"/>
      <point x="54.0" y="225.0" type="curve" smooth="yes"/>
      <point x="54.0" y="85.0"/>
      <point x="132.0" y="-20.0"/>
      <point x="311.0" y="-20.0" type="curve" smooth="yes"/>
      <point x="488.73333333333323" y="-20.0"/>
      <point x="677.0" y="101.0"/>
      <point x="900.0" y="457.0" type="curve"/>
      <point x="909.0" y="457.0" type="line"/>
      <point x="867.0" y="107.0"/>
      <point x="1000.0" y="-20.0"/>
      <point x="1220.0" y="-20.0" type="curve" smooth="yes"/>
      <point x="1414.0" y="-20.0"/>
      <point x="1566.0" y="46.0"/>
      <point x="1704.0" y="351.0" type="curve"/>
      <point x="1655.0" y="351.0" type="line"/>
      <point x="1528.0" y="109.0"/>
      <point x="1412.0" y="44.0"/>
      <point x="1227.0" y="44.0" type="curve" smooth="yes"/>
      <point x="1055.0" y="44.0"/>
      <point x="968.0" y="144.0"/>
      <point x="968.0" y="347.0" type="curve" smooth="yes"/>
      <point x="968.0" y="751.0"/>
      <point x="1207.0" y="992.0"/>
      <point x="1510.0" y="992.0" type="curve" smooth="yes"/>
      <point x="1717.0" y="992.0"/>
      <point x="1752.0" y="844.0"/>
      <point x="1696.0" y="677.0" type="curve"/>
      <point x="1569.0" y="631.0"/>
      <point x="1358.0" y="583.0"/>
      <point x="968.0" y="518.0" type="curve"/>
      <point x="970.0" y="472.0" type="line"/>
      <point x="1322.0" y="530.0"/>
      <point x="1548.0" y="574.0"/>
      <point x="1752.0" y="629.0" type="curve"/>
      <point x="1778.0" y="701.0"/>
      <point x="1791.0" y="765.0"/>
      <point x="1791.0" y="819.0" type="curve" smooth="yes"/>
      <point x="1791.0" y="965.0"/>
      <point x="1699.0" y="1044.0"/>
      <point x="1524.0" y="1044.0" type="curve" smooth="yes"/>
      <point x="1317.0" y="1044.0"/>
      <point x="1168.0" y="956.0"/>
      <point x="1057.0" y="805.0" type="curve"/>
    </contour>
  </outline>
</glyph>
<glyph name="aogonek" format="2">
  <advance width="1247"/>
  <unicode hex="0105"/>
  <outline>
    <contour>
      <point x="1176.0" y="122.0" type="curve"/>
      <point x="1161.0" y="154.0" type="line"/>
      <point x="970.0" y="56.0"/>
      <point x="857.0" y="42.0"/>
      <point x="776.0" y="50.0" type="curve"/>
      <point x="796.0" y="13.0" type="line"/>
      <point x="1153.0" y="1024.0" type="line"/>
      <point x="1077.0" y="1024.0" type="line"/>
      <point x="1024.0" y="867.0" type="line"/>
      <point x="962.0" y="680.0" type="line" smooth="yes"/>
      <point x="862.0" y="381.0"/>
      <point x="592.0" y="40.0"/>
      <point x="334.0" y="40.0" type="curve" smooth="yes"/>
      <point x="196.0" y="40.0"/>
      <point x="133.0" y="102.0"/>
      <point x="133.0" y="240.0" type="curve" smooth="yes"/>
      <point x="133.0" y="525.0"/>
      <point x="421.0" y="993.0"/>
      <point x="754.0" y="993.0" type="curve" smooth="yes"/>
      <point x="874.0" y="993.0"/>
      <point x="968.0" y="943.0"/>
      <point x="1032.0" y="842.0" type="curve"/>
      <point x="1038.0" y="859.0" type="line"/>
      <point x="982.0" y="971.0"/>
      <point x="896.0" y="1044.0"/>
      <point x="757.0" y="1044.0" type="curve" smooth="yes"/>
      <point x="351.0" y="1044.0"/>
      <point x="54.0" y="535.0"/>
      <point x="54.0" y="225.0" type="curve" smooth="yes"/>
      <point x="54.0" y="85.0"/>
      <point x="132.0" y="-20.0"/>
      <point x="311.0" y="-20.0" type="curve" smooth="yes"/>
      <point x="483.0" y="-20.0"/>
      <point x="664.0" y="92.0"/>
      <point x="881.0" y="427.0" type="curve"/>
      <point x="890.0" y="427.0" type="line"/>
      <point x="748.0" y="79.0" type="line" smooth="yes"/>
      <point x="720.0" y="11.0"/>
      <point x="732.0" y="-20.0"/>
      <point x="790.0" y="-20.0" type="curve" smooth="yes"/>
      <point x="845.0" y="-20.0"/>
      <point x="951.0" y="-1.0"/>
      <point x="1097.0" y="77.0" type="curve"/>
      <point x="1099.0" y="99.0" type="line"/>
      <point x="886.0" y="-93.0" type="line" smooth="yes"/>
      <point x="755.0" y="-211.0"/>
      <point x="726.0" y="-283.0"/>
      <point x="726.0" y="-354.0" type="curve" smooth="yes"/>
      <point x="726.0" y="-414.0"/>
      <point x="761.0" y="-465.0"/>
      <point x="844.0" y="-465.0" type="curve" smooth="yes"/>
      <point x="898.0" y="-465.0"/>
      <point x="950.0" y="-451.0"/>
      <point x="1013.0" y="-409.0" type="curve"/>
      <point x="1013.0" y="-367.0" type="line"/>
      <point x="958.0" y="-398.0"/>
      <point x="931.0" y="-406.0"/>
      <point x="891.0" y="-406.0" type="curve" smooth="yes"/>
      <point x="834.0" y="-406.0"/>
      <point x="803.0" y="-376.0"/>
      <point x="803.0" y="-330.0" type="curve" smooth="yes"/>
      <point x="803.0" y="-267.0"/>
      <point x="833.0" y="-197.0"/>
      <point x="932.0" y="-107.0" type="curve" smooth="yes"/>
      <point x="1014.0" y="-32.0" type="line" smooth="yes"/>
      <point x="1053.0" y="4.0"/>
      <point x="1119.0" y="66.0"/>
    </contour>
  </outline>
</glyph>
<glyph name="Eng" format="2">
  <advance width="1627"/>
  <unicode hex="014A"/>
  <outline>
    <contour>
      <point x="1156.0" y="79.0" type="line"/>
      <point x="664.0" y="1414.0" type="line"/>
      <point x="378.0" y="1414.0" type="line"/>
      <point x="362.0" y="1363.0" type="line"/>
      <point x="568.0" y="1347.0" type="line"/>
      <point x="175.0" y="63.0" type="line"/>
      <point x="-40.0" y="47.0" type="line"/>
      <point x="-54.0" y="0.0" type="line"/>
      <point x="428.0" y="0.0" type="line"/>
      <point x="443.0" y="47.0" type="line"/>
      <point x="238.0" y="63.0" type="line"/>
      <point x="632.0" y="1352.0" type="line"/>
      <point x="611.0" y="1346.0" type="line"/>
      <point x="1120.0" y="-27.0" type="line"/>
    </contour>
    <contour>
      <point x="1135.0" y="-147.0" type="curve" smooth="yes"/>
      <point x="1593.0" y="1351.0" type="line"/>
      <point x="1807.0" y="1367.0" type="line"/>
      <point x="1822.0" y="1414.0" type="line"/>
      <point x="1339.0" y="1414.0" type="line"/>
      <point x="1325.0" y="1367.0" type="line"/>
      <point x="1530.0" y="1351.0" type="line"/>
      <point x="1072.0" y="-150.0" type="line" smooth="yes"/>
      <point x="1017.0" y="-331.0"/>
      <point x="927.0" y="-408.0"/>
      <point x="755.0" y="-408.0" type="curve" smooth="yes"/>
      <point x="649.0" y="-408.0"/>
      <point x="631.0" y="-327.0"/>
      <point x="599.0" y="-327.0" type="curve" smooth="yes"/>
      <point x="556.0" y="-327.0"/>
      <point x="542.0" y="-358.0"/>
      <point x="542.0" y="-387.0" type="curve" smooth="yes"/>
      <point x="542.0" y="-429.0"/>
      <point x="592.0" y="-465.0"/>
      <point x="731.0" y="-465.0" type="curve" smooth="yes"/>
      <point x="949.0" y="-465.0"/>
      <point x="1067.0" y="-369.0"/>
    </contour>
  </outline>
</glyph>
<glyph name="oe" format="2">
  <advance width="1906"/>
  <unicode hex="0153"/>
  <anchor x="1172.0" y="1024" name="top"/>
  <anchor x="858.0" y="0" name="bottom"/>
  <outline>
    <contour>
      <point x="712.0" y="1044.0" type="curve" smooth="yes"/>
      <point x="314.0" y="1044.0"/>
      <point x="93.0" y="662.0"/>
      <point x="93.0" y="323.0" type="curve" smooth="yes"/>
      <point x="93.0" y="106.0"/>
      <point x="212.0" y="-20.0"/>
      <point x="447.0" y="-20.0" type="curve" smooth="yes"/>
      <point x="693.0" y="-20.0"/>
      <point x="876.0" y="148.0"/>
      <point x="977.0" y="339.0" type="curve"/>
      <point x="959.0" y="339.0" type="line"/>
      <point x="955.0" y="92.0"/>
      <point x="1090.0" y="-20.0"/>
      <point x="1280.0" y="-20.0" type="curve" smooth="yes"/>
      <point x="1474.0" y="-20.0"/>
      <point x="1626.0" y="46.0"/>
      <point x="1764.0" y="351.0" type="curve"/>
      <point x="1715.0" y="351.0" type="line"/>
      <point x="1588.0" y="109.0"/>
      <point x="1472.0" y="44.0"/>
      <point x="1287.0" y="44.0" type="curve" smooth="yes"/>
      <point x="1115.0" y="44.0"/>
      <point x="1028.0" y="144.0"/>
      <point x="1028.0" y="347.0" type="curve" smooth="yes"/>
      <point x="1028.0" y="751.0"/>
      <point x="1267.0" y="992.0"/>
      <point x="1570.0" y="992.0" type="curve" smooth="yes"/>
      <point x="1777.0" y="992.0"/>
      <point x="1812.0" y="844.0"/>
      <point x="1756.0" y="677.0" type="curve"/>
      <point x="1629.0" y="631.0"/>
      <point x="1418.0" y="583.0"/>
      <point x="1028.0" y="518.0" type="curve"/>
      <point x="1030.0" y="472.0" type="line"/>
      <point x="1382.0" y="530.0"/>
      <point x="1608.0" y="574.0"/>
      <point x="1812.0" y="629.0" type="curve"/>
      <point x="1838.0" y="701.0"/>
      <point x="1851.0" y="765.0"/>
      <point x="1851.0" y="819.0" type="curve" smooth="yes"/>
      <point x="1851.0" y="965.0"/>
      <point x="1759.0" y="1044.0"/>
      <point x="1584.0" y="1044.0" type="curve" smooth="yes"/>
      <point x="1337.0" y="1044.0"/>
      <point x="1135.0" y="904.0"/>
      <point x="1031.0" y="698.0" type="curve"/>
      <point x="1057.0" y="698.0" type="line"/>
      <point x="1053.0" y="908.0"/>
      <point x="943.0" y="1044.0"/>
    </contour>
    <contour>
      <point x="443.0" y="36.0" type="curve" smooth="yes"/>
      <point x="265.0" y="36.0"/>
      <point x="169.0" y="129.0"/>
      <point x="169.0" y="335.0" type="curve" smooth="yes"/>
      <point x="169.0" y="648.0"/>
      <point x="360.0" y="988.0"/>
      <point x="716.0" y="988.0" type="curve" smooth="yes"/>
      <point x="894.0" y="988.0"/>
      <point x="990.0" y="895.0"/>
      <point x="990.0" y="689.0" type="curve" smooth="yes"/>
      <point x="990.0" y="376.0"/>
      <point x="799.0" y="36.0"/>
    </contour>
  </outline>
</glyph>
<glyph name="gravecomb" format="2">
  <unicode hex="0300"/>
  <anchor x="157" y="1024.0" name="_top"/>
  <anchor x="292" y="1463" name="top"/>
  <outline>
    <contour>
      <point x="218.0" y="1138.0" type="line"/>
      <point x="106.0" y="1464.0" type="line"/>
      <point x="15.0" y="1464.0" type="line"/>
      <point x="15.0" y="1448.0" type="line"/>
      <point x="179.0" y="1138.0" type="line"/>
    </contour>
  </outline>
</glyph>
<glyph name="acutecomb" format="2">
  <unicode hex="0301"/>
  <anchor x="157" y="1024.0" name="_top"/>
  <anchor x="291" y="1464" name="top"/>
  <outline>
    <contour>
      <point x="165.0" y="1138.0" type="line"/>
      <point x="217.0" y="1138.0" type="line"/>
      <point x="563.0" y="1448.0" type="line"/>
      <point x="567.0" y="1464.0" type="line"/>
      <point x="458.0" y="1464.0" type="line"/>
    </contour>
  </outline>
</glyph>
<glyph name="uni0304" format="2">
  <unicode hex="0304"/>
  <anchor x="157" y="1024.0" name="_top"/>
  <anchor x="291" y="1464.0" name="top"/>
  <outline>
    <contour>
      <point x="-24.0" y="1268.0" type="line"/>
      <point x="487.0" y="1268.0" type="line"/>
      <point x="507.0" y="1335.0" type="line"/>
      <point x="-4.0" y="1335.0" type="line"/>
    </contour>
  </outline>
</glyph>
<glyph name="uni0306" format="2">
  <unicode hex="0306"/>
  <anchor x="157" y="1024.0" name="_top"/>
  <anchor x="291" y="1464.0" name="top"/>
  <outline>
    <contour>
      <point x="206.0" y="1202.0" type="curve" smooth="yes"/>
      <point x="78.0" y="1202.0"/>
      <point x="39.0" y="1257.0"/>
      <point x="62.0" y="1464.0" type="curve"/>
      <point x="18.0" y="1464.0" type="line"/>
      <point x="-14.0" y="1210.0"/>
      <point x="31.0" y="1128.0"/>
      <point x="194.0" y="1128.0" type="curve" smooth="yes"/>
      <point x="346.0" y="1128.0"/>
      <point x="439.0" y="1202.0"/>
      <point x="564.0" y="1464.0" type="curve"/>
      <point x="510.0" y="1464.0" type="line"/>
      <point x="412.0" y="1258.0"/>
      <point x="334.0" y="1202.0"/>
    </contour>
  </outline>
</glyph>
<glyph name="hookabovecomb" format="2">
  <unicode hex="0309"/>
  <anchor x="157" y="1024.0" name="_top"/>
  <anchor x="291" y="1464.0" name="top"/>
  <outline>
    <contour>
      <point x="93.0" y="1410.0" type="line"/>
      <point x="293.0" y="1404.0"/>
      <point x="337.0" y="1375.0"/>
      <point x="337.0" y="1316.0" type="curve" smooth="yes"/>
      <point x="337.0" y="1264.0"/>
      <point x="309.0" y="1216.0"/>
      <point x="120.0" y="1170.0" type="curve"/>
      <point x="129.0" y="1130.0" type="line"/>
      <point x="356.0" y="1186.0"/>
      <point x="403.0" y="1244.0"/>
      <point x="403.0" y="1340.0" type="curve" smooth="yes"/>
      <point x="403.0" y="1416.0"/>
      <point x="348.0" y="1480.0"/>
      <point x="111.0" y="1490.0" type="curve"/>
    </contour>
  </outline>
</glyph>
<glyph name="uni0311" format="2">
  <unicode hex="0311"/>
  <anchor x="157" y="1024.0" name="_top"/>
  <anchor x="291" y="1464.0" name="top"/>
  <outline>
    <contour>
      <point x="276.0" y="1400.0" type="curve" smooth="yes"/>
      <point x="404.0" y="1400.0"/>
      <point x="443.0" y="1345.0"/>
      <point x="420.0" y="1138.0" type="curve"/>
      <point x="464.0" y="1138.0" type="line"/>
      <point x="496.0" y="1392.0"/>
      <point x="451.0" y="1474.0"/>
      <point x="288.0" y="1474.0" type="curve" smooth="yes"/>
      <point x="136.0" y="1474.0"/>
      <point x="43.0" y="1400.0"/>
      <point x="-82.0" y="1138.0" type="curve"/>
      <point x="-28.0" y="1138.0" type="line"/>
      <point x="70.0" y="1344.0"/>
      <point x="148.0" y="1400.0"/>
    </contour>
  </outline>
</glyph>
<glyph name="quoteright" format="2">
  <advance width="489"/>
  <unicode hex="2019"/>
  <outline>
    <contour>
      <point x="269.0" y="1004.0" type="curve"/>
      <point x="285.0" y="967.0" type="line"/>
      <point x="526.0" y="1075.0"/>
      <point x="611.0" y="1198.0"/>
      <point x="611.0" y="1341.0" type="curve" smooth="yes"/>
      <point x="611.0" y="1400.0"/>
      <point x="583.0" y="1428.0"/>
      <point x="539.0" y="1428.0" type="curve" smooth="yes"/>
      <point x="452.0" y="1428.0"/>
      <point x="409.0" y="1360.0"/>
      <point x="409.0" y="1325.0" type="curve" smooth="yes"/>
      <point x="409.0" y="1291.0"/>
      <point x="487.0" y="1269.0"/>
      <point x="487.0" y="1211.0" type="curve" smooth="yes"/>
      <point x="487.0" y="1132.0"/>
      <point x="411.0" y="1069.0"/>
    </contour>
  </outline>
</glyph>
<glyph name="guilsinglleft" format="2">
  <advance width="618"/>
  <unicode hex="2039"/>
  <outline>
    <contour>
      <point x="162.0" y="527.0" type="line"/>
      <point x="149.0" y="485.0" type="line"/>
      <point x="614.0" y="887.0" type="line"/>
      <point x="585.0" y="928.0" type="line"/>
      <point x="115.0" y="555.0" type="line"/>
      <point x="94.0" y="489.0" type="line"/>
      <point x="343.0" y="116.0" type="line"/>
      <point x="384.0" y="141.0" type="line"/>
    </contour>
  </outline>
</glyph>
<glyph name="trademark" format="2">
  <advance width="1633"/>
  <unicode hex="2122"/>
  <outline>
    <contour>
      <point x="618.0" y="1411.0" type="line"/>
      <point x="459.0" y="890.0" type="line"/>
      <point x="371.0" y="883.0" type="line"/>
      <point x="360.0" y="847.0" type="line"/>
      <point x="590.0" y="847.0" type="line"/>
      <point x="601.0" y="883.0" type="line"/>
      <point x="518.0" y="890.0" type="line"/>
      <point x="677.0" y="1411.0" type="line"/>
    </contour>
    <contour>
      <point x="1513.0" y="890.0" type="line"/>
      <point x="1626.0" y="1370.0" type="line"/>
      <point x="1713.0" y="1378.0" type="line"/>
      <point x="1724.0" y="1414.0" type="line"/>
      <point x="1550.0" y="1414.0" type="line"/>
      <point x="1197.0" y="909.0" type="line"/>
      <point x="1215.0" y="909.0" type="line"/>
      <point x="1158.0" y="1414.0" type="line"/>
      <point x="1000.0" y="1414.0" type="line"/>
      <point x="989.0" y="1378.0" type="line"/>
      <point x="1074.0" y="1368.0" type="line"/>
      <point x="899.0" y="890.0" type="line"/>
      <point x="811.0" y="883.0" type="line"/>
      <point x="800.0" y="847.0" type="line"/>
      <point x="1016.0" y="847.0" type="line"/>
      <point x="1027.0" y="883.0" type="line"/>
      <point x="943.0" y="890.0" type="line"/>
      <point x="1119.0" y="1368.0" type="line"/>
      <point x="1108.0" y="1367.0" type="line"/>
      <point x="1165.0" y="847.0" type="line"/>
      <point x="1197.0" y="847.0" type="line"/>
      <point x="1574.0" y="1377.0" type="line"/>
      <point x="1569.0" y="1378.0" type="line"/>
      <point x="1455.0" y="890.0" type="line"/>
      <point x="1368.0" y="883.0" type="line"/>
      <point x="1357.0" y="847.0" type="line"/>
      <point x="1586.0" y="847.0" type="line"/>
      <point x="1597.0" y="883.0" type="line"/>
    </contour>
    <contour>
      <point x="857.0" y="1371.0" type="line"/>
      <point x="847.0" y="1396.0" type="line"/>
      <point x="829.0" y="1235.0" type="line"/>
      <point x="865.0" y="1235.0" type="line"/>
      <point x="902.0" y="1444.0" type="line"/>
      <point x="866.0" y="1444.0" type="line"/>
      <point x="852.0" y="1407.0" type="line"/>
      <point x="877.0" y="1414.0" type="line"/>
      <point x="428.0" y="1414.0" type="line"/>
      <point x="445.0" y="1407.0" type="line"/>
      <point x="452.0" y="1444.0" type="line"/>
      <point x="414.0" y="1444.0" type="line"/>
      <point x="323.0" y="1235.0" type="line"/>
      <point x="362.0" y="1235.0" type="line"/>
      <point x="447.0" y="1396.0" type="line"/>
      <point x="414.0" y="1371.0" type="line"/>
    </contour>
  </outline>
</glyph>
<glyph name="f_f" format="2">
  <advance width="1292"/>
  <unicode hex="FB00"/>
  <outline>
    <contour>
      <point x="1402.0" y="1024.0" type="line"/>
      <point x="148.0" y="1024.0" type="line"/>
      <point x="148.0" y="967.0" type="line"/>
      <point x="1402.0" y="967.0" type="line"/>
    </contour>
    <contour>
      <point x="456.0" y="1014.0" type="curve" smooth="yes"/>
      <point x="240.0" y="9.0" type="line" smooth="yes"/>
      <point x="177" y="-282"/>
      <point x="58.0" y="-419.0"/>
      <point x="-120.0" y="-419.0" type="curve" smooth="yes"/>
      <point x="-158.0" y="-419.0"/>
      <point x="-180.0" y="-416.0"/>
      <point x="-191.0" y="-397.0" type="curve" smooth="yes"/>
      <point x="-202.0" y="-378.0"/>
      <point x="-201.0" y="-347.0"/>
      <point x="-194.0" y="-291.0" type="curve"/>
      <point x="-291.0" y="-288.0"/>
      <point x="-313.0" y="-308.0"/>
      <point x="-313.0" y="-356.0" type="curve" smooth="yes"/>
      <point x="-313.0" y="-420.0"/>
      <point x="-261.0" y="-465.0"/>
      <point x="-138.0" y="-465.0" type="curve" smooth="yes"/>
      <point x="75.0" y="-465.0"/>
      <point x="235" y="-336"/>
      <point x="313.0" y="25.0" type="curve" smooth="yes"/>
      <point x="530.0" y="1026.0" type="line" smooth="yes"/>
      <point x="595" y="1328"/>
      <point x="736.0" y="1421.0"/>
      <point x="937.0" y="1421.0" type="curve" smooth="yes"/>
      <point x="1069.0" y="1421.0"/>
      <point x="1133.0" y="1369.0"/>
      <point x="1165.0" y="1288.0" type="curve"/>
      <point x="1234.0" y="1358.0" type="line"/>
      <point x="1190.0" y="1423.0"/>
      <point x="1106.0" y="1464.0"/>
      <point x="961.0" y="1464.0" type="curve" smooth="yes"/>
      <point x="711.0" y="1464.0"/>
      <point x="526" y="1341"/>
    </contour>
    <contour>
      <point x="1022.0" y="1014.0" type="curve" smooth="yes"/>
      <point x="806.0" y="9.0" type="line" smooth="yes"/>
      <point x="744" y="-280"/>
      <point x="599.0" y="-399.0"/>
      <point x="430.0" y="-399.0" type="curve" smooth="yes"/>
      <point x="310.0" y="-399.0"/>
      <point x="229.0" y="-322.0"/>
      <point x="207.0" y="-222.0" type="curve"/>
      <point x="130.0" y="-301.0" type="line"/>
      <point x="189.0" y="-397.0"/>
      <point x="283.0" y="-445.0"/>
      <point x="411.0" y="-445.0" type="curve" smooth="yes"/>
      <point x="631.0" y="-445.0"/>
      <point x="804" y="-323"/>
      <point x="879.0" y="25.0" type="curve" smooth="yes"/>
      <point x="1111.0" y="1097.0" type="line" smooth="yes"/>
      <point x="1159" y="1321"/>
      <point x="1284.0" y="1441.0"/>
      <point x="1467.0" y="1441.0" type="curve" smooth="yes"/>
      <point x="1521.0" y="1441.0"/>
      <point x="1550.0" y="1437.0"/>
      <point x="1560.0" y="1418.0" type="curve" smooth="yes"/>
      <point x="1570.0" y="1399.0"/>
      <point x="1570.0" y="1372.0"/>
      <point x="1564.0" y="1327.0" type="curve"/>
      <point x="1661.0" y="1324.0"/>
      <point x="1683.0" y="1344.0"/>
      <point x="1683.0" y="1392.0" type="curve" smooth="yes"/>
      <point x="1683.0" y="1444.0"/>
      <point x="1632.0" y="1484.0"/>
      <point x="1500.0" y="1484.0" type="curve" smooth="yes"/>
      <point x="1270.0" y="1484.0"/>
      <point x="1096" y="1360"/>
    </contour>
  </outline>
</glyph>
<glyph name="fi" format="2">
  <advance width="1283"/>
  <unicode hex="FB01"/>
  <outline>
    <contour>
      <point x="148.0" y="967.0" type="line"/>
      <point x="1108.0" y="967.0" type="line"/>
      <point x="1090.0" y="1005.0" type="line"/>
      <point x="741.0" y="58.0" type="line" smooth="yes"/>
      <point x="720.0" y="0.0"/>
      <point x="737.0" y="-20.0"/>
      <point x="787.0" y="-20.0" type="curve" smooth="yes"/>
      <point x="852.0" y="-20.0"/>
      <point x="992.0" y="5.0"/>
      <point x="1183.0" y="124.0" type="curve"/>
      <point x="1168.0" y="156.0" type="line"/>
      <point x="973.0" y="55.0"/>
      <point x="856.0" y="42.0"/>
      <point x="773.0" y="50.0" type="curve"/>
      <point x="797.0" y="11.0" type="line"/>
      <point x="1179.0" y="1044.0" type="line"/>
      <point x="1164.0" y="1044.0" type="line"/>
      <point x="1100.0" y="1029.0"/>
      <point x="1036.0" y="1024.0"/>
      <point x="970.0" y="1024.0" type="curve" smooth="yes"/>
      <point x="148.0" y="1024.0" type="line"/>
    </contour>
    <contour>
      <point x="313" y="25" type="curve" smooth="yes"/>
      <point x="531" y="1032" type="line" smooth="yes"/>
      <point x="593" y="1317"/>
      <point x="741" y="1441"/>
      <point x="984" y="1441" type="curve" smooth="yes"/>
      <point x="1047" y="1441"/>
      <point x="1087" y="1422"/>
      <point x="1106" y="1397" type="curve" smooth="yes"/>
      <point x="1125" y="1372.0"/>
      <point x="1131" y="1337"/>
      <point x="1126" y="1297" type="curve"/>
      <point x="1216" y="1294"/>
      <point x="1251" y="1320"/>
      <point x="1251" y="1375" type="curve" smooth="yes"/>
      <point x="1251" y="1438"/>
      <point x="1193" y="1484"/>
      <point x="1023" y="1484" type="curve" smooth="yes"/>
      <point x="727" y="1484"/>
      <point x="531" y="1364"/>
      <point x="447" y="972" type="curve" smooth="yes"/>
      <point x="240" y="9" type="line" smooth="yes"/>
      <point x="177" y="-282"/>
      <point x="58" y="-419"/>
      <point x="-120" y="-419" type="curve" smooth="yes"/>
      <point x="-158" y="-419"/>
      <point x="-180" y="-416"/>
      <point x="-191" y="-397" type="curve" smooth="yes"/>
      <point x="-202" y="-378"/>
      <point x="-201" y="-347"/>
      <point x="-194" y="-291" type="curve"/>
      <point x="-291" y="-288"/>
      <point x="-313" y="-308"/>
      <point x="-313" y="-356" type="curve" smooth="yes"/>
      <point x="-313" y="-420"/>
      <point x="-261" y="-465"/>
      <point x="-138" y="-465" type="curve" smooth="yes"/>
      <point x="75" y="-465"/>
      <point x="235" y="-336"/>
    </contour>
  </outline>
</glyph>
<glyph name="fl" format="2">
  <advance width="1264"/>
  <unicode hex="FB02"/>
  <outline>
    <contour>
      <point x="148.0" y="967.0" type="line"/>
      <point x="860.0" y="967.0" type="line"/>
      <point x="860.0" y="1024.0" type="line"/>
      <point x="148.0" y="1024.0" type="line"/>
    </contour>
    <contour>
      <point x="313.0" y="25.0" type="curve" smooth="yes"/>
      <point x="531.0" y="1032.0" type="line" smooth="yes"/>
      <point x="593.0" y="1317.0"/>
      <point x="740.0" y="1441.0"/>
      <point x="949.0" y="1441.0" type="curve" smooth="yes"/>
      <point x="1038.0" y="1441.0"/>
      <point x="1098.0" y="1412.0"/>
      <point x="1129.0" y="1359.0" type="curve"/>
      <point x="752.0" y="67.0" type="line" smooth="yes"/>
      <point x="733.0" y="2.0"/>
      <point x="748.0" y="-20.0"/>
      <point x="802.0" y="-20.0" type="curve" smooth="yes"/>
      <point x="867.0" y="-20.0"/>
      <point x="1007.0" y="5.0"/>
      <point x="1198.0" y="124.0" type="curve"/>
      <point x="1183.0" y="156.0" type="line"/>
      <point x="1010.0" y="66.0"/>
      <point x="898.0" y="46.0"/>
      <point x="817.0" y="48.0" type="curve"/>
      <point x="1237.0" y="1484.0" type="line"/>
      <point x="1204.0" y="1484.0" type="line"/>
      <point x="1122.0" y="1440.0" type="line"/>
      <point x="1174.0" y="1438.0" type="line"/>
      <point x="1116.0" y="1468.0"/>
      <point x="1066.0" y="1484.0"/>
      <point x="975.0" y="1484.0" type="curve" smooth="yes"/>
      <point x="727.0" y="1484.0"/>
      <point x="531.0" y="1364.0"/>
      <point x="447.0" y="972.0" type="curve" smooth="yes"/>
      <point x="240.0" y="9.0" type="line" smooth="yes"/>
      <point x="177" y="-282"/>
      <point x="58.0" y="-419.0"/>
      <point x="-120.0" y="-419.0" type="curve" smooth="yes"/>
      <point x="-158.0" y="-419.0"/>
      <point x="-180.0" y="-416.0"/>
      <point x="-191.0" y="-397.0" type="curve" smooth="yes"/>
      <point x="-202.0" y="-378.0"/>
      <point x="-201.0" y="-347.0"/>
      <point x="-194.0" y="-291.0" type="curve"/>
      <point x="-291.0" y="-288.0"/>
      <point x="-313.0" y="-308.0"/>
      <point x="-313.0" y="-356.0" type="curve" smooth="yes"/>
      <point x="-313.0" y="-420.0"/>
      <point x="-261.0" y="-465.0"/>
      <point x="-138.0" y="-465.0" type="curve" smooth="yes"/>
      <point x="75.0" y="-465.0"/>
      <point x="235" y="-336"/>
    </contour>
  </outline>
</glyph>
<glyph name="two.lf" format="2">
  <advance width="1198"/>
  <outline>
    <contour>
      <point x="300.0" y="955.0" type="line"/>
      <point x="383.0" y="1261.0"/>
      <point x="535.0" y="1369.0"/>
      <point x="740.0" y="1369.0" type="curve" smooth="yes"/>
      <point x="944.0" y="1369.0"/>
      <point x="1035.0" y="1257.0"/>
      <point x="1035.0" y="1095.0" type="curve" smooth="yes"/>
      <point x="1035.0" y="946.0"/>
      <point x="951.0" y="808.0"/>
      <point x="620.0" y="535.0" type="curve" smooth="yes"/>
      <point x="49.0" y="64.0" type="line"/>
      <point x="29.0" y="0.0" type="line"/>
      <point x="797.0" y="0.0" type="line"/>
      <point x="775.0" y="-70.0" type="line"/>
      <point x="838.0" y="-70.0" type="line"/>
      <point x="1052.0" y="370.0" type="line"/>
      <point x="997.0" y="370.0" type="line"/>
      <point x="815.0" y="64.0" type="line"/>
      <point x="848.0" y="68.0" type="line"/>
      <point x="89.0" y="68.0" type="line"/>
      <point x="75.0" y="18.0" type="line"/>
      <point x="652.0" y="488.0" type="line" smooth="yes"/>
      <point x="1037.6573527405424" y="802.9708298662651"/>
      <point x="1113.0" y="924.8193012769168"/>
      <point x="1113.0" y="1109.0" type="curve" smooth="yes"/>
      <point x="1113.0" y="1303.0"/>
      <point x="986.0" y="1434.0"/>
      <point x="753.0" y="1434.0" type="curve" smooth="yes"/>
      <point x="498.0" y="1434.0"/>
      <point x="326.0" y="1289.0"/>
      <point x="245.0" y="966.0" type="curve"/>
    </contour>
  </outline>
</glyph>
<glyph name="uni0306_acutecomb.case" format="2">
  <anchor x="276" y="1414.0" name="_UCtop"/>
  <outline>
    <contour>
      <point x="318.0" y="1721.0" type="line"/>
      <point x="368.0" y="1721.0" type="line"/>
      <point x="687.0" y="1988.0" type="line"/>
      <point x="692.0" y="2004.0" type="line"/>
      <point x="578.0" y="2004.0" type="line"/>
    </contour>
    <contour>
      <point x="317.0" y="1569.0" type="curve" smooth="yes"/>
      <point x="192.0" y="1569.0"/>
      <point x="162.0" y="1618.0"/>
      <point x="167.0" y="1742.0" type="curve"/>
      <point x="129.0" y="1742.0" type="line"/>
      <point x="109.0" y="1540.0"/>
      <point x="161.0" y="1493.0"/>
      <point x="302.0" y="1493.0" type="curve" smooth="yes"/>
      <point x="442.0" y="1493.0"/>
      <point x="519.0" y="1540.0"/>
      <point x="623.0" y="1742.0" type="curve"/>
      <point x="573.0" y="1742.0" type="line"/>
      <point x="506.0" y="1624.0"/>
      <point x="440.0" y="1569.0"/>
    </contour>
  </outline>
</glyph>
<glyph name="uni0306_hookabovecomb.case" format="2">
  <anchor x="276" y="1414.0" name="_UCtop"/>
  <outline>
    <contour>
      <point x="317.0" y="1569.0" type="curve" smooth="yes"/>
      <point x="192.0" y="1569.0"/>
      <point x="162.0" y="1618.0"/>
      <point x="167.0" y="1742.0" type="curve"/>
      <point x="129.0" y="1742.0" type="line"/>
      <point x="109.0" y="1540.0"/>
      <point x="161.0" y="1493.0"/>
      <point x="302.0" y="1493.0" type="curve" smooth="yes"/>
      <point x="442.0" y="1493.0"/>
      <point x="519.0" y="1540.0"/>
      <point x="623.0" y="1742.0" type="curve"/>
      <point x="573.0" y="1742.0" type="line"/>
      <point x="506.0" y="1624.0"/>
      <point x="440.0" y="1569.0"/>
    </contour>
    <contour>
      <point x="338.0" y="1719.0" type="line"/>
      <point x="522.0" y="1775.0"/>
      <point x="584.0" y="1835.0"/>
      <point x="584.0" y="1928.0" type="curve" smooth="yes"/>
      <point x="584.0" y="1995.0"/>
      <point x="539.0" y="2046.0"/>
      <point x="336.0" y="2057.0" type="curve"/>
      <point x="317.0" y="1973.0" type="line"/>
      <point x="480.0" y="1968.0"/>
      <point x="515.0" y="1940.0"/>
      <point x="515.0" y="1900.0" type="curve" smooth="yes"/>
      <point x="515.0" y="1849.0"/>
      <point x="481.0" y="1806.0"/>
      <point x="326.0" y="1760.0" type="curve"/>
    </contour>
  </outline>
</glyph>
<glyph name="uni0307.case" format="2">
  <anchor x="276" y="1414.0" name="_UCtop"/>
  <anchor x="391" y="1793.0" name="UCtop"/>
  <anchor x="365" y="1707.0" name="_mid"/>
  <outline>
    <contour>
      <point x="365.0" y="1621.0" type="curve" smooth="yes"/>
      <point x="418.0" y="1621.0"/>
      <point x="453.0" y="1651.0"/>
      <point x="453.0" y="1709.0" type="curve" smooth="yes"/>
      <point x="453.0" y="1767.0"/>
      <point x="418.0" y="1793.0"/>
      <point x="365.0" y="1793.0" type="curve" smooth="yes"/>
      <point x="312.0" y="1793.0"/>
      <point x="277.0" y="1767.0"/>
      <point x="277.0" y="1709.0" type="curve" smooth="yes"/>
      <point x="277.0" y="1651.0"/>
      <point x="312.0" y="1621.0"/>
    </contour>
  </outline>
</glyph>
<glyph name="uni20BC.lf" format="2">
  <advance width="1176"/>
  <outline>
    <contour>
      <point x="752.0" y="1088.0" type="curve" smooth="yes"/>
      <point x="980.0" y="1088.0"/>
      <point x="1044.0" y="873.0"/>
      <point x="818.0" y="0.0" type="curve"/>
      <point x="894.0" y="0.0" type="line"/>
      <point x="1150.0" y="982.0"/>
      <point x="1006.0" y="1143.0"/>
      <point x="767.0" y="1143.0" type="curve" smooth="yes"/>
      <point x="514.0" y="1143.0"/>
      <point x="292.0" y="982.0"/>
      <point x="-22.0" y="0.0" type="curve"/>
      <point x="54.0" y="0.0" type="line"/>
      <point x="332.0" y="873.0"/>
      <point x="524.0" y="1088.0"/>
    </contour>
    <contour>
      <point x="402.0" y="0.0" type="line"/>
      <point x="470.0" y="0.0" type="line"/>
      <point x="902.0" y="1414.0" type="line"/>
      <point x="834.0" y="1414.0" type="line"/>
    </contour>
  </outline>
</glyph>
